<?xml version="1.0" encoding="UTF-8" standalone="no"?>
<!-- Created with Inkscape (http://www.inkscape.org/) -->

<svg
   xmlns:dc="http://purl.org/dc/elements/1.1/"
   xmlns:cc="http://creativecommons.org/ns#"
   xmlns:rdf="http://www.w3.org/1999/02/22-rdf-syntax-ns#"
   xmlns:svg="http://www.w3.org/2000/svg"
   xmlns="http://www.w3.org/2000/svg"
   xmlns:sodipodi="http://sodipodi.sourceforge.net/DTD/sodipodi-0.dtd"
   xmlns:inkscape="http://www.inkscape.org/namespaces/inkscape"
   width="744.09448819"
   height="1052.3622047"
   id="svg2"
   version="1.1"
   inkscape:version="0.48.1 r9760"
   sodipodi:docname="logo-idphp-steven.svg">
  <defs
     id="defs4" />
  <sodipodi:namedview
     id="base"
     pagecolor="#ffffff"
     bordercolor="#666666"
     borderopacity="1.0"
     inkscape:pageopacity="0.0"
     inkscape:pageshadow="2"
     inkscape:zoom="0.35"
     inkscape:cx="116.95044"
     inkscape:cy="488.80766"
     inkscape:document-units="px"
     inkscape:current-layer="layer1"
     showgrid="false"
     inkscape:window-width="1364"
     inkscape:window-height="714"
     inkscape:window-x="0"
     inkscape:window-y="1"
     inkscape:window-maximized="1" />
  <metadata
     id="metadata7">
    <rdf:RDF>
      <cc:Work
         rdf:about="">
        <dc:format>image/svg+xml</dc:format>
        <dc:type
           rdf:resource="http://purl.org/dc/dcmitype/StillImage" />
        <dc:title></dc:title>
      </cc:Work>
    </rdf:RDF>
  </metadata>
  <g
     inkscape:label="Layer 1"
     inkscape:groupmode="layer"
     id="layer1">
    <path
       style="fill:#ffffff;fill-opacity:1;stroke:#000000;stroke-width:11.71937466;stroke-linecap:round;stroke-linejoin:round;stroke-miterlimit:4;stroke-opacity:1"
       d="m 397.91195,394.52218 c -33.87423,26.87549 -69.69263,40.45828 -129.35405,-5.89059 -64.53976,-50.13868 -36.71474,-103.64937 7.45182,-134.04091 41.52928,-28.5768 80.67562,-46.3105 134.24146,1.31238 60.05698,53.39382 31.97002,103.46457 -12.33923,138.61912 z"
       id="path3796-5"
       inkscape:connector-curvature="0"
       sodipodi:nodetypes="sssss"
       inkscape:export-filename="/home/s1/repos/artwork/logo-idphp-steven.png"
       inkscape:export-xdpi="45.580002"
       inkscape:export-ydpi="45.580002" />
    <path
       style="fill:#ffffff;fill-opacity:1;stroke:#000000;stroke-width:10;stroke-linecap:round;stroke-linejoin:round;stroke-miterlimit:4;stroke-opacity:1"
       d="m 614.76447,344.79705 c -3.02377,36.77263 -15.45961,67.00176 -79.12621,77.11823 -68.87244,10.94366 -85.96435,-37.59934 -79.12621,-82.83252 6.42982,-42.53222 18.22204,-77.25521 79.12621,-82.83251 68.28455,-6.25316 83.08146,40.44628 79.12621,88.5468 z"
       id="path3796"
       inkscape:connector-curvature="0"
       sodipodi:nodetypes="sssss"
       inkscape:export-filename="/home/s1/repos/artwork/logo-idphp-steven.png"
       inkscape:export-xdpi="45.580002"
       inkscape:export-ydpi="45.580002" />
    <path
       style="fill:#ffffff;fill-opacity:1;stroke:#000000;stroke-width:10.93338776;stroke-linecap:round;stroke-linejoin:round;stroke-miterlimit:4;stroke-opacity:1"
       d="m 755.8602,432.56855 c -0.93902,38.57286 -12.68524,70.72161 -89.66597,81.3503 -78.17035,10.79296 -98.00817,-39.74946 -89.66597,-87.37818 6.48951,-37.05116 12.39811,-86.60062 89.66597,-87.37819 51.98407,-0.52314 90.83864,45.23554 89.66597,93.40607 z"
       id="path3796-0"
       inkscape:connector-curvature="0"
       sodipodi:nodetypes="sssss"
       inkscape:export-filename="/home/s1/repos/artwork/logo-idphp-steven.png"
       inkscape:export-xdpi="45.580002"
       inkscape:export-ydpi="45.580002" />
    <g
       id="g3798"
       transform="translate(-22.857143,38.571429)"
       inkscape:export-filename="/home/s1/repos/artwork/logo-idphp-steven.png"
       inkscape:export-xdpi="45.580002"
       inkscape:export-ydpi="45.580002">
      <path
         sodipodi:nodetypes="ccccsscc"
         inkscape:connector-curvature="0"
         id="path3768"
         d="M 382.68446,451.38453 320.71429,314.50503 470,348.07646 c -16.32905,-50.21031 -30.76841,-61.12719 -52.5,-91.42857 78.54067,-0.7143 142.49999,68.95931 142.49999,147.85714 0,78.89782 -63.95932,142.85715 -142.85714,142.85715 -78.89783,0 -145.71429,-46.81647 -146.78571,-125.35714 z"
         style="fill:#ffffff;fill-opacity:1;stroke:#000000;stroke-width:10;stroke-linecap:butt;stroke-linejoin:round;stroke-miterlimit:4;stroke-opacity:1;stroke-dasharray:none" />
      <path
         sodipodi:nodetypes="sscs"
         inkscape:connector-curvature="0"
         id="path3770"
         d="m 404.26585,331.28451 c -0.57638,2.38954 51.48367,11.22912 64.09225,14.97284 1.7978,0.5338 -48.72426,-102.57665 -50.73862,-88.77081 -0.55219,16.85715 -7.87154,51.07078 -13.35363,73.79797 z"
         style="fill:#ffffff;fill-opacity:1;stroke:#000000;stroke-width:10;stroke-linecap:round;stroke-linejoin:round;stroke-miterlimit:4;stroke-opacity:1;stroke-dasharray:none" />
      <path
         sodipodi:nodetypes="cccc"
         inkscape:connector-curvature="0"
         id="path3770-8"
         d="m 271.11138,421.7378 82.50287,-36.18724 28.55038,64.36803 z"
         style="fill:#ffffff;fill-opacity:1;stroke:#000000;stroke-width:10;stroke-linecap:round;stroke-linejoin:round;stroke-miterlimit:4;stroke-opacity:1;stroke-dasharray:none" />
    </g>
    <path
       sodipodi:type="arc"
       style="fill:none;stroke-width:10;stroke-linecap:round;stroke-linejoin:round;stroke-miterlimit:4;stroke-dasharray:none"
       id="path3792"
       sodipodi:cx="458.60925"
       sodipodi:cy="292.72748"
       sodipodi:rx="98.994949"
       sodipodi:ry="129.29953"
       d="m 557.6042,292.72748 a 98.994949,129.29953 0 1 1 -197.9899,0 98.994949,129.29953 0 1 1 197.9899,0 z"
       inkscape:export-filename="/home/s1/repos/artwork/logo-idphp-steven.png"
       inkscape:export-xdpi="45.580002"
       inkscape:export-ydpi="45.580002" />
    <path
       style="fill:#ffffff;fill-opacity:1;stroke:#000000;stroke-width:10;stroke-linecap:round;stroke-linejoin:round;stroke-miterlimit:4;stroke-opacity:1"
       d="m 628.09917,543.29182 c -3.02377,36.77263 -15.45961,67.00176 -79.12621,77.11823 -68.87244,10.94366 -85.96435,-37.59934 -79.12621,-82.83252 6.42982,-42.53222 18.22204,-77.25521 79.12621,-82.83251 68.28455,-6.25316 83.08146,40.44628 79.12621,88.5468 z"
       id="path3796-4"
       inkscape:connector-curvature="0"
       sodipodi:nodetypes="sssss"
       inkscape:export-filename="/home/s1/repos/artwork/logo-idphp-steven.png"
       inkscape:export-xdpi="45.580002"
       inkscape:export-ydpi="45.580002" />
    <g
       id="g3784">
      <path
         sodipodi:nodetypes="cssc"
         inkscape:connector-curvature="0"
         id="path3885"
         d="m 771.75654,539.20469 c -124.6945,89.88059 -413.9215,139.72527 -609.25997,2.70629 -20.97302,-14.71139 114.88568,133.23843 269.84872,133.6643 149.1565,0.40991 171.42398,-28.34548 339.41126,-136.37059"
         style="fill:#ffffff;fill-opacity:0;stroke:#000000;stroke-width:10;stroke-linecap:round;stroke-linejoin:round;stroke-miterlimit:4;stroke-opacity:1" />
      <text
         inkscape:export-ydpi="45.580002"
         inkscape:export-xdpi="45.580002"
         inkscape:export-filename="/home/s1/repos/artwork/g3889.png"
         transform="scale(1.0399246,0.96160818)"
         sodipodi:linespacing="125%"
         id="text3847"
         y="688.05206"
         x="363.49194"
         style="font-size:34.7756691px;font-style:normal;font-variant:normal;font-weight:600;font-stretch:normal;text-align:start;line-height:125%;letter-spacing:0px;word-spacing:0px;writing-mode:lr-tb;text-anchor:start;fill:#000000;fill-opacity:1;stroke:none;font-family:URW Gothic L;-inkscape-font-specification:URW Gothic L Semi-Bold"
         xml:space="preserve"><tspan
           y="688.05206"
           x="363.49194"
           id="tspan3887"
           sodipodi:role="line">id-php</tspan></text>
      <path
         transform="translate(-38.385797,-90.913729)"
         d="m 894.99515,487.68692 a 389.91888,229.30463 0 1 1 -779.83777,0 389.91888,229.30463 0 1 1 779.83777,0 z"
         sodipodi:ry="229.30463"
         sodipodi:rx="389.91888"
         sodipodi:cy="487.68692"
         sodipodi:cx="505.07626"
         id="path3851"
         style="fill:#ffffff;fill-opacity:0;stroke:#000000;stroke-width:10;stroke-linecap:round;stroke-linejoin:round;stroke-miterlimit:4;stroke-opacity:1;stroke-dasharray:none"
         sodipodi:type="arc" />
    </g>
  </g>
</svg>
